<?xml version="1.0" encoding="UTF-8" standalone="no"?>
<!-- Created with Inkscape (http://www.inkscape.org/) -->

<svg
   width="10.820818mm"
   height="3.2510989mm"
   viewBox="0 0 10.820818 3.2510989"
   version="1.1"
   id="svg1"
   inkscape:version="1.4.2 (f4327f4, 2025-05-13)"
   sodipodi:docname="рисунок.svg"
   inkscape:export-filename="рисунок.png"
   inkscape:export-xdpi="97.124756"
   inkscape:export-ydpi="97.124756"
   xml:space="preserve"
   inkscape:export-batch-path="C:\Users\Administrator\IdeaProjects\RBZH\assets"
   inkscape:export-batch-name=""
   xmlns:inkscape="http://www.inkscape.org/namespaces/inkscape"
   xmlns:sodipodi="http://sodipodi.sourceforge.net/DTD/sodipodi-0.dtd"
   xmlns="http://www.w3.org/2000/svg"
   xmlns:svg="http://www.w3.org/2000/svg"><sodipodi:namedview
     id="namedview1"
     pagecolor="#ffffff"
     bordercolor="#000000"
     borderopacity="0.25"
     inkscape:showpageshadow="2"
     inkscape:pageopacity="0.0"
     inkscape:pagecheckerboard="0"
     inkscape:deskcolor="#d1d1d1"
     inkscape:document-units="mm"
     inkscape:zoom="1.4142135"
     inkscape:cx="-4129.5038"
     inkscape:cy="541.29026"
     inkscape:window-width="1920"
     inkscape:window-height="1017"
     inkscape:window-x="1912"
     inkscape:window-y="-8"
     inkscape:window-maximized="1"
     inkscape:current-layer="layer4"
     showgrid="false"
     inkscape:export-bgcolor="#ffffff00" /><defs
     id="defs1"><linearGradient
       id="swatch13"
       inkscape:swatch="solid"><stop
         style="stop-color:#000000;stop-opacity:0.19710143;"
         offset="0"
         id="stop13" /></linearGradient><linearGradient
       id="swatch11"
       inkscape:swatch="solid"><stop
         style="stop-color:#000000;stop-opacity:1;"
         offset="0"
         id="stop11" /></linearGradient><linearGradient
       id="swatch5"
       inkscape:swatch="solid"><stop
         style="stop-color:#000000;stop-opacity:1;"
         offset="0"
         id="stop5" /></linearGradient><linearGradient
       id="swatch4"
       inkscape:swatch="solid"><stop
         style="stop-color:#ffffff;stop-opacity:1;"
         offset="0"
         id="stop4" /></linearGradient></defs><g
     inkscape:groupmode="layer"
     id="layer2"
     inkscape:label="palette 1"
     transform="translate(813.30156,847.73985)"><path
       style="fill:#000000;fill-opacity:1;stroke:#ffffff;stroke-width:0.08;stroke-linecap:round;stroke-linejoin:bevel;stroke-dasharray:none;stroke-opacity:1"
       d="m -804.6628,-844.58807 -0.14825,-0.2706 -0.29651,-0.60884 h -0.3071 l -0.15884,-0.27059 h -2.00872 l -0.0674,0.72722 h -2.64687 v 0.18604 l -0.15156,-0.0648 v -0.5267 l 0.15156,-0.0706 v 0.1594 h 2.4303 v -0.41049 h -1.66785 v -0.20295 h -0.6142 l -0.11378,-0.18181 h -1.88759 l -0.0583,0.13741 h -1.05365 v -0.65745 h 1.05365 l 0.0583,0.17335 h 1.88759 l 0.11378,-0.15433 h 0.52418 0.47124 v -0.47989 l 0.10464,-0.29172 h 0.97557 l 0.10085,0.27885 h -0.94269 v 0.47374 h 0.48712 l 0.0342,-0.20416 h 0.92942 l 0.1676,0.15455 h 0.28245 l 0.1539,-0.24579 h 0.20085 v -0.15278 h -0.60891 v -0.22831 l -0.0759,-0.20982 v -0.17071 h 1.14011 l 0.0913,0.25252 h 0.66026 l 0.0427,-0.13895 h 0.39711 v 0.57137 h -0.39711 l -0.0427,-0.11807 h -0.35972 l -0.0873,0.13937 h -0.42633 v 0.16474 h 1.0219 l 0.0732,0.2025 h 0.86396 v -0.13485 h 0.89483 l 0.14031,0.22409 h 0.15091 l 0.57713,-0.62998 h 0.0848 l -0.1711,0.47331 v 1.0065 l -0.11927,0.10998 v 0.85402 h -0.19674 v -1.0401 h -1.72081 l -0.0726,0.20079 0.42734,0.67019 -0.27003,0.38052 z"
       id="path49-1"
       sodipodi:nodetypes="ccccccccccccccccccccccccccccccccccccccccccccccccccccccccccccccccccccccccccccccc"
       inkscape:label="AMR"
       sodipodi:insensitive="true" /></g></svg>
