<?xml version="1.0" encoding="UTF-8" standalone="no"?>
<!-- Created with Inkscape (http://www.inkscape.org/) -->

<svg
   width="15.381mm"
   height="15.395043mm"
   viewBox="0 0 15.381 15.395043"
   version="1.1"
   id="svg1"
   inkscape:version="1.4.2 (f4327f4, 2025-05-13)"
   sodipodi:docname="рисунок.svg"
   inkscape:export-filename="рисунок.png"
   inkscape:export-xdpi="97.124756"
   inkscape:export-ydpi="97.124756"
   xml:space="preserve"
   inkscape:export-batch-path="C:\Users\Administrator\IdeaProjects\RBZH\assets"
   inkscape:export-batch-name=""
   xmlns:inkscape="http://www.inkscape.org/namespaces/inkscape"
   xmlns:sodipodi="http://sodipodi.sourceforge.net/DTD/sodipodi-0.dtd"
   xmlns="http://www.w3.org/2000/svg"
   xmlns:svg="http://www.w3.org/2000/svg"><sodipodi:namedview
     id="namedview1"
     pagecolor="#ffffff"
     bordercolor="#000000"
     borderopacity="0.25"
     inkscape:showpageshadow="2"
     inkscape:pageopacity="0.0"
     inkscape:pagecheckerboard="0"
     inkscape:deskcolor="#d1d1d1"
     inkscape:document-units="mm"
     inkscape:zoom="1.4142135"
     inkscape:cx="-4129.5038"
     inkscape:cy="541.29026"
     inkscape:window-width="1920"
     inkscape:window-height="1017"
     inkscape:window-x="1912"
     inkscape:window-y="-8"
     inkscape:window-maximized="1"
     inkscape:current-layer="layer4"
     showgrid="false"
     inkscape:export-bgcolor="#ffffff00" /><defs
     id="defs1"><linearGradient
       id="swatch13"
       inkscape:swatch="solid"><stop
         style="stop-color:#000000;stop-opacity:0.19710143;"
         offset="0"
         id="stop13" /></linearGradient><linearGradient
       id="swatch11"
       inkscape:swatch="solid"><stop
         style="stop-color:#000000;stop-opacity:1;"
         offset="0"
         id="stop11" /></linearGradient><linearGradient
       id="swatch5"
       inkscape:swatch="solid"><stop
         style="stop-color:#000000;stop-opacity:1;"
         offset="0"
         id="stop5" /></linearGradient><linearGradient
       id="swatch4"
       inkscape:swatch="solid"><stop
         style="stop-color:#ffffff;stop-opacity:1;"
         offset="0"
         id="stop4" /></linearGradient></defs><g
     inkscape:groupmode="layer"
     id="layer4"
     inkscape:label="icons_status"
     transform="translate(1147.6883,823.07483)"
     style="display:inline"><g
       id="g71"
       style="stroke:#000000;stroke-width:0.381;stroke-dasharray:none;stroke-opacity:1"
       inkscape:label="dead"
       transform="translate(0,-0.97540822)"><path
         id="path54"
         style="fill:#2f2f2f;fill-opacity:1;stroke:#000000;stroke-width:0.381;stroke-dasharray:none;stroke-opacity:1"
         d="m -1139.9979,-821.90241 -3.7363,0.98527 -2.1983,2.87203 -0.2978,3.12956 0.6693,2.33012 -0.3848,0.77766 1.1346,1.36289 1.3611,0.3179 0.4828,1.89159 1.6125,0.94767 1.3569,0.38531 1.357,-0.38531 1.6125,-0.94767 0.4828,-1.89159 1.3611,-0.3179 1.1346,-1.36289 -0.3848,-0.77766 0.6693,-2.33012 -0.2978,-3.12956 -2.1984,-2.87203 z m -3.4173,6.84446 2.0564,1.20431 0.1596,0.65022 -0.268,0.57136 -1.8073,0.50309 -0.7218,-0.43557 -0.2954,-1.6401 0.2405,-0.40445 z m 6.8347,0 0.636,0.44886 0.2405,0.40445 -0.2954,1.6401 -0.7218,0.43557 -1.8074,-0.50309 -0.2679,-0.57136 0.1596,-0.65022 z m -3.8057,2.51936 h 0.3883 0.3884 l 0.7782,1.58458 -0.39,0.72784 -0.7766,-0.43512 -0.7765,0.43512 -0.39,-0.72784 z" /><rect
         style="fill:#000000;fill-opacity:1;stroke:#000000;stroke-width:0.381;stroke-dasharray:none;stroke-opacity:1"
         id="rect57"
         width="15"
         height="2.1303694"
         x="-1147.4978"
         y="-814.53601" /><path
         style="fill:#d02020;fill-opacity:1;stroke:#000000;stroke-width:0.381;stroke-dasharray:none;stroke-opacity:1"
         d="m -1143.9261,-814.00718 c 0.033,0.0275 0.066,0.0551 0.099,0.0827 0.022,0.0111 0.046,0.0188 0.066,0.0331 0.1368,0.0977 -0.032,0.008 0.099,0.0827 0.021,0.0122 0.046,0.0183 0.066,0.0331 0.025,0.0188 0.041,0.0484 0.066,0.0661 0.047,0.0323 0.1,0.0538 0.1488,0.0827 0.072,0.0428 0.1413,0.0917 0.215,0.13229 0.037,0.0201 0.079,0.0292 0.1158,0.0496 0.1121,0.0623 0.2982,0.18249 0.3968,0.28112 0,0.004 0,0.0116 0,0.0164 0.013,0.0262 0.05,0.0417 0.066,0.0661 0.022,0.0326 0.042,0.0688 0.066,0.0992 0.02,0.0243 0.052,0.0383 0.066,0.0661 0,0.005 0,0.0127 0,0.0164 0,0.004 0.013,-0.004 0.016,0 0,0.004 0,0.0116 0,0.0164 0.01,0.0183 0.049,0.0323 0.066,0.0496"
         id="path57" /><path
         style="fill:#d02020;fill-opacity:0;stroke:#a90000;stroke-width:0.381;stroke-linejoin:round;stroke-dasharray:none;stroke-opacity:1;paint-order:normal"
         d="m -1144.094,-815.05181 c 0.3843,0.63164 0.8482,1.21211 1.2628,1.82412 0.7439,1.09815 0.048,0.10636 0.3274,0.49109 0.043,0.059 0.2319,0.37418 0.304,0.37418"
         id="path68" /><path
         style="fill:#d02020;fill-opacity:0;stroke:#a90000;stroke-width:0.381;stroke-linejoin:round;stroke-dasharray:none;stroke-opacity:1;paint-order:normal"
         d="m -1144.5384,-812.01161 c 0.6207,-0.74036 1.3156,-1.41841 1.9177,-2.17493 0.2288,-0.28747 0.4155,-0.57743 0.6314,-0.86527"
         id="path69" /><path
         style="fill:#d02020;fill-opacity:0;stroke:#a90000;stroke-width:0.381;stroke-linejoin:round;stroke-dasharray:none;stroke-opacity:1;paint-order:normal"
         d="m -1137.9669,-815.23889 c 0.031,0.0779 0.055,0.15936 0.094,0.23384 0.063,0.12099 0.1432,0.23217 0.2105,0.35081 0.065,0.11528 0.1178,0.2378 0.187,0.35078 0.1006,0.16415 0.4599,0.65477 0.5613,0.79513 0.3442,0.47659 0.3068,0.43431 0.7016,0.93543 0.08,0.10205 0.4911,0.59214 0.4911,0.72499"
         id="path70" /><path
         style="fill:#d02020;fill-opacity:0;stroke:#a90000;stroke-width:0.381;stroke-linejoin:round;stroke-dasharray:none;stroke-opacity:1;paint-order:normal"
         d="m -1135.5113,-815.35584 c -0.2207,0.67657 -0.6628,1.20849 -1.0992,1.75395 -0.44,0.54999 -0.8755,1.10575 -1.3096,1.66042 -0.089,0.11419 -0.1853,0.2249 -0.2572,0.35078 -0.02,0.0342 -0.032,0.11695 -0.07,0.11695"
         id="path71" /></g></g></svg>
