<?xml version="1.0" encoding="UTF-8" standalone="no"?>
<!-- Created with Inkscape (http://www.inkscape.org/) -->

<svg
   width="7.6938968mm"
   height="4.3702869mm"
   viewBox="0 0 7.6938968 4.3702869"
   version="1.1"
   id="svg1"
   inkscape:version="1.4.2 (f4327f4, 2025-05-13)"
   sodipodi:docname="рисунок.svg"
   inkscape:export-filename="рисунок.png"
   inkscape:export-xdpi="97.124756"
   inkscape:export-ydpi="97.124756"
   xml:space="preserve"
   inkscape:export-batch-path="C:\Users\Administrator\IdeaProjects\RBZH\assets"
   inkscape:export-batch-name=""
   xmlns:inkscape="http://www.inkscape.org/namespaces/inkscape"
   xmlns:sodipodi="http://sodipodi.sourceforge.net/DTD/sodipodi-0.dtd"
   xmlns="http://www.w3.org/2000/svg"
   xmlns:svg="http://www.w3.org/2000/svg"><sodipodi:namedview
     id="namedview1"
     pagecolor="#ffffff"
     bordercolor="#000000"
     borderopacity="0.25"
     inkscape:showpageshadow="2"
     inkscape:pageopacity="0.0"
     inkscape:pagecheckerboard="0"
     inkscape:deskcolor="#d1d1d1"
     inkscape:document-units="mm"
     inkscape:zoom="1.4142135"
     inkscape:cx="-4129.5038"
     inkscape:cy="541.29026"
     inkscape:window-width="1920"
     inkscape:window-height="1017"
     inkscape:window-x="1912"
     inkscape:window-y="-8"
     inkscape:window-maximized="1"
     inkscape:current-layer="layer4"
     showgrid="false"
     inkscape:export-bgcolor="#ffffff00" /><defs
     id="defs1"><linearGradient
       id="swatch13"
       inkscape:swatch="solid"><stop
         style="stop-color:#000000;stop-opacity:0.19710143;"
         offset="0"
         id="stop13" /></linearGradient><linearGradient
       id="swatch11"
       inkscape:swatch="solid"><stop
         style="stop-color:#000000;stop-opacity:1;"
         offset="0"
         id="stop11" /></linearGradient><linearGradient
       id="swatch5"
       inkscape:swatch="solid"><stop
         style="stop-color:#000000;stop-opacity:1;"
         offset="0"
         id="stop5" /></linearGradient><linearGradient
       id="swatch4"
       inkscape:swatch="solid"><stop
         style="stop-color:#ffffff;stop-opacity:1;"
         offset="0"
         id="stop4" /></linearGradient></defs><g
     inkscape:groupmode="layer"
     id="layer2"
     inkscape:label="palette 1"
     transform="translate(800.39204,842.84466)"><path
       id="path37-0"
       style="fill:#000000;stroke:#ffffff;stroke-width:0.0529168;stroke-linecap:round;stroke-linejoin:bevel;stroke-dasharray:none;stroke-opacity:1"
       d="m -796.27359,-842.26571 h 0.49375 l 0.13154,-0.23834 h 0.88487 l 0.0927,0.16796 h 0.40356 l 0.24779,-0.25923 v -0.22288 h 0.12292 v 0.26001 l -0.18534,0.33586 v 0.75839 h 0.65168 l 0.0946,-0.63973 h 0.61092 v 0.89973 h -0.71749 l -0.0128,-0.0863 h -0.38185 l -0.0614,0.19287 0.0774,0.52351 -0.13554,0.0416 -0.10763,-0.54171 -0.0239,-0.17334 h -0.81315 l -0.46635,0.97507 -0.0717,-0.0975 0.37068,-0.88839 h -0.89085 l -0.3144,-0.15265 z m -2.11905,0.44421 h 2.09861 v 0.2925 l -2.09861,-0.0974 z m -1.20773,-0.29294 h 3.31232 v 0.22291 h -3.31232 z m 0.62995,0.25077 h 0.13952 v -0.7278 h -0.15644 z m -1.39516,-0.39071 v 0.49029 l 0.81172,-0.0406 v -0.39989 l -0.32605,-0.0405 v 0.38738 h -0.0658 v -0.38738 h -0.0658 v 0.38738 h -0.0658 v -0.38738 h -0.0658 v 0.38738 h -0.0658 v -0.38738 z m 3.39066,1.17975 -0.62571,2.5738 h 0.22828 l 0.55995,-2.26736 h 0.45472 l 1.16685,1.17977 0.80794,1.08759 h 0.33357 l -0.95548,-1.21017 -1.34882,-1.4111 z"
       sodipodi:nodetypes="cccccccccccccccccccccccccccccccccccccccccccccccccccccccccccccccccccccccccc"
       inkscape:label="HMG"
       sodipodi:insensitive="true" /></g></svg>
