<?xml version="1.0" encoding="UTF-8" standalone="no"?>
<!-- Created with Inkscape (http://www.inkscape.org/) -->

<svg
   width="6.6356902mm"
   height="7.8413701mm"
   viewBox="0 0 6.6356902 7.8413701"
   version="1.1"
   id="svg1"
   inkscape:version="1.4.2 (f4327f4, 2025-05-13)"
   sodipodi:docname="рисунок.svg"
   inkscape:export-filename="рисунок.png"
   inkscape:export-xdpi="97.124756"
   inkscape:export-ydpi="97.124756"
   xml:space="preserve"
   inkscape:export-batch-path="C:\Users\Administrator\IdeaProjects\RBZH\assets"
   inkscape:export-batch-name=""
   xmlns:inkscape="http://www.inkscape.org/namespaces/inkscape"
   xmlns:sodipodi="http://sodipodi.sourceforge.net/DTD/sodipodi-0.dtd"
   xmlns="http://www.w3.org/2000/svg"
   xmlns:svg="http://www.w3.org/2000/svg"><sodipodi:namedview
     id="namedview1"
     pagecolor="#ffffff"
     bordercolor="#000000"
     borderopacity="0.25"
     inkscape:showpageshadow="2"
     inkscape:pageopacity="0.0"
     inkscape:pagecheckerboard="0"
     inkscape:deskcolor="#d1d1d1"
     inkscape:document-units="mm"
     inkscape:zoom="1.4142135"
     inkscape:cx="-4129.5038"
     inkscape:cy="541.29026"
     inkscape:window-width="1920"
     inkscape:window-height="1017"
     inkscape:window-x="1912"
     inkscape:window-y="-8"
     inkscape:window-maximized="1"
     inkscape:current-layer="layer4"
     showgrid="false"
     inkscape:export-bgcolor="#ffffff00" /><defs
     id="defs1"><linearGradient
       id="swatch13"
       inkscape:swatch="solid"><stop
         style="stop-color:#000000;stop-opacity:0.19710143;"
         offset="0"
         id="stop13" /></linearGradient><linearGradient
       id="swatch11"
       inkscape:swatch="solid"><stop
         style="stop-color:#000000;stop-opacity:1;"
         offset="0"
         id="stop11" /></linearGradient><linearGradient
       id="swatch5"
       inkscape:swatch="solid"><stop
         style="stop-color:#000000;stop-opacity:1;"
         offset="0"
         id="stop5" /></linearGradient><linearGradient
       id="swatch4"
       inkscape:swatch="solid"><stop
         style="stop-color:#ffffff;stop-opacity:1;"
         offset="0"
         id="stop4" /></linearGradient></defs><g
     inkscape:groupmode="layer"
     id="layer2"
     inkscape:label="palette 1"
     transform="translate(778.72016,841.1256)"><path
       id="path35"
       style="fill:#000000;fill-opacity:1;stroke:#e7e7e7;stroke-width:0.07;stroke-linecap:round;stroke-linejoin:bevel;stroke-opacity:1"
       d="m -775.22366,-833.8333 a 0.18092286,0.15997197 0 0 1 -0.18093,0.15997 0.18092286,0.15997197 0 0 1 -0.18092,-0.15997 0.18092286,0.15997197 0 0 1 0.18092,-0.15998 0.18092286,0.15997197 0 0 1 0.18093,0.15998 z m 0.67635,0 a 0.18092286,0.15997197 0 0 1 -0.18092,0.15997 0.18092286,0.15997197 0 0 1 -0.18092,-0.15997 0.18092286,0.15997197 0 0 1 0.18092,-0.15998 0.18092286,0.15997197 0 0 1 0.18092,0.15998 z m -1.35271,0 a 0.18092286,0.15997197 0 0 1 -0.18092,0.15997 0.18092286,0.15997197 0 0 1 -0.18093,-0.15997 0.18092286,0.15997197 0 0 1 0.18093,-0.15998 0.18092286,0.15997197 0 0 1 0.18092,0.15998 z m 0.68088,-0.98384 a 0.18092286,0.15997197 0 0 1 -0.18093,0.15997 0.18092286,0.15997197 0 0 1 -0.18092,-0.15997 0.18092286,0.15997197 0 0 1 0.18092,-0.15997 0.18092286,0.15997197 0 0 1 0.18093,0.15997 z m 0.67635,0 a 0.18092286,0.15997197 0 0 1 -0.18092,0.15997 0.18092286,0.15997197 0 0 1 -0.18092,-0.15997 0.18092286,0.15997197 0 0 1 0.18092,-0.15997 0.18092286,0.15997197 0 0 1 0.18092,0.15997 z m -1.35271,0 a 0.18092286,0.15997197 0 0 1 -0.18092,0.15997 0.18092286,0.15997197 0 0 1 -0.18093,-0.15997 0.18092286,0.15997197 0 0 1 0.18093,-0.15997 0.18092286,0.15997197 0 0 1 0.18092,0.15997 z m 0.67184,0.49192 a 0.18092286,0.15997197 0 0 1 -0.18093,0.15997 0.18092286,0.15997197 0 0 1 -0.18092,-0.15997 0.18092286,0.15997197 0 0 1 0.18092,-0.15997 0.18092286,0.15997197 0 0 1 0.18093,0.15997 z m 0.67635,0 a 0.18092286,0.15997197 0 0 1 -0.18092,0.15997 0.18092286,0.15997197 0 0 1 -0.18092,-0.15997 0.18092286,0.15997197 0 0 1 0.18092,-0.15997 0.18092286,0.15997197 0 0 1 0.18092,0.15997 z m -1.35271,0 a 0.18092286,0.15997197 0 0 1 -0.18092,0.15997 0.18092286,0.15997197 0 0 1 -0.18093,-0.15997 0.18092286,0.15997197 0 0 1 0.18093,-0.15997 0.18092286,0.15997197 0 0 1 0.18092,0.15997 z m 1.00703,-1.88486 0.0846,0.0791 -0.5073,0.65511 -0.0846,-0.0791 z m -1.52109,0.79824 c 4e-5,-0.61364 0.45305,-1.11106 1.01177,-1.11113 0.55869,-7e-5 1.01179,0.49751 1.01173,1.11115 m -4.29458,-1.555 h 5.11576 l 0.14332,-0.3762 h 0.0887 v -3.74758 h 0.25801 v 3.74758 h 0.0968 l 0.14331,0.3762 h 0.71979 v 3.64759 h -6.56566 z"
       inkscape:label="radio"
       sodipodi:insensitive="true" /></g></svg>
