<?xml version="1.0" encoding="UTF-8" standalone="no"?>
<!-- Created with Inkscape (http://www.inkscape.org/) -->

<svg
   width="7.2021198mm"
   height="4.0678439mm"
   viewBox="0 0 7.2021198 4.0678439"
   version="1.1"
   id="svg1"
   inkscape:version="1.4.2 (f4327f4, 2025-05-13)"
   sodipodi:docname="рисунок.svg"
   inkscape:export-filename="рисунок.png"
   inkscape:export-xdpi="97.124756"
   inkscape:export-ydpi="97.124756"
   xml:space="preserve"
   inkscape:export-batch-path="C:\Users\Administrator\IdeaProjects\RBZH\assets"
   inkscape:export-batch-name=""
   xmlns:inkscape="http://www.inkscape.org/namespaces/inkscape"
   xmlns:sodipodi="http://sodipodi.sourceforge.net/DTD/sodipodi-0.dtd"
   xmlns="http://www.w3.org/2000/svg"
   xmlns:svg="http://www.w3.org/2000/svg"><sodipodi:namedview
     id="namedview1"
     pagecolor="#ffffff"
     bordercolor="#000000"
     borderopacity="0.25"
     inkscape:showpageshadow="2"
     inkscape:pageopacity="0.0"
     inkscape:pagecheckerboard="0"
     inkscape:deskcolor="#d1d1d1"
     inkscape:document-units="mm"
     inkscape:zoom="1.4142135"
     inkscape:cx="-4129.5038"
     inkscape:cy="541.29026"
     inkscape:window-width="1920"
     inkscape:window-height="1017"
     inkscape:window-x="1912"
     inkscape:window-y="-8"
     inkscape:window-maximized="1"
     inkscape:current-layer="layer4"
     showgrid="false"
     inkscape:export-bgcolor="#ffffff00" /><defs
     id="defs1"><linearGradient
       id="swatch13"
       inkscape:swatch="solid"><stop
         style="stop-color:#000000;stop-opacity:0.19710143;"
         offset="0"
         id="stop13" /></linearGradient><linearGradient
       id="swatch11"
       inkscape:swatch="solid"><stop
         style="stop-color:#000000;stop-opacity:1;"
         offset="0"
         id="stop11" /></linearGradient><linearGradient
       id="swatch5"
       inkscape:swatch="solid"><stop
         style="stop-color:#000000;stop-opacity:1;"
         offset="0"
         id="stop5" /></linearGradient><linearGradient
       id="swatch4"
       inkscape:swatch="solid"><stop
         style="stop-color:#ffffff;stop-opacity:1;"
         offset="0"
         id="stop4" /></linearGradient></defs><g
     inkscape:groupmode="layer"
     id="layer2"
     inkscape:label="palette 1"
     transform="translate(790.64858,842.69343)"><path
       id="rect13-0"
       style="stroke:#ffffff;stroke-width:0.059;stroke-linecap:round;stroke-linejoin:bevel"
       d="m -784.48644,-839.66499 h 0.20204 v -0.0842 h 0.0987 v 0.0841 h 0.405 v -0.0841 h 0.0987 v 0.0839 h 0.20604 v 1.0102 h -1.0102 z m -1.23509,-1.10443 h -1.12156 l -0.84674,2.1111 h 0.5125 l 0.57934,-1.29504 0.63135,0.0177 0.64112,1.27728 h 0.53243 z m 1.01968,-1.77144 -0.87136,0.0999 v 0.9119 l 0.87136,0.10017 z m -0.97966,-0.0115 c 0,0 -0.0975,-0.083 -0.15714,-0.10048 -0.0503,-0.0147 -0.10686,-0.0147 -0.15713,0 -0.0597,0.0175 -0.15714,0.10048 -0.15714,0.10048 0,0 -0.0975,-0.083 -0.15713,-0.10048 -0.0503,-0.0147 -0.10687,-0.0147 -0.15714,0 -0.0597,0.0175 -0.15713,0.10048 -0.15713,0.10048 0,0 -0.0975,-0.083 -0.15714,-0.10048 -0.0503,-0.0147 -0.10686,-0.0147 -0.15713,0 -0.0597,0.0175 -0.15714,0.10048 -0.15714,0.10048 v 1.13481 c 0,0 0.0976,0.0824 0.15714,0.0997 0.0503,0.0146 0.10683,0.0146 0.15713,0 0.0596,-0.0173 0.15714,-0.0997 0.15714,-0.0997 0,0 0.0976,0.0824 0.15713,0.0997 0.0503,0.0146 0.10684,0.0146 0.15714,0 0.0596,-0.0173 0.15713,-0.0997 0.15713,-0.0997 0,0 0.0976,0.0824 0.15714,0.0997 0.0503,0.0146 0.10683,0.0146 0.15713,0 0.0596,-0.0173 0.15714,-0.0997 0.15714,-0.0997 z m -1.52302,0.27863 -3.41432,0.0999 -2.3e-4,0.378 3.41455,0.0996 z"
       inkscape:label="rcl_plasma"
       sodipodi:insensitive="true" /></g></svg>
