<?xml version="1.0" encoding="UTF-8" standalone="no"?>
<!-- Created with Inkscape (http://www.inkscape.org/) -->

<svg
   width="12.851027mm"
   height="16.099091mm"
   viewBox="0 0 12.851027 16.099091"
   version="1.1"
   id="svg1"
   inkscape:version="1.4.2 (f4327f4, 2025-05-13)"
   sodipodi:docname="рисунок.svg"
   inkscape:export-filename="рисунок.png"
   inkscape:export-xdpi="97.124756"
   inkscape:export-ydpi="97.124756"
   xml:space="preserve"
   inkscape:export-batch-path="C:\Users\Administrator\IdeaProjects\RBZH\assets"
   inkscape:export-batch-name=""
   xmlns:inkscape="http://www.inkscape.org/namespaces/inkscape"
   xmlns:sodipodi="http://sodipodi.sourceforge.net/DTD/sodipodi-0.dtd"
   xmlns="http://www.w3.org/2000/svg"
   xmlns:svg="http://www.w3.org/2000/svg"><sodipodi:namedview
     id="namedview1"
     pagecolor="#ffffff"
     bordercolor="#000000"
     borderopacity="0.25"
     inkscape:showpageshadow="2"
     inkscape:pageopacity="0.0"
     inkscape:pagecheckerboard="0"
     inkscape:deskcolor="#d1d1d1"
     inkscape:document-units="mm"
     inkscape:zoom="2.8284271"
     inkscape:cx="-3047.6302"
     inkscape:cy="-3226.3515"
     inkscape:window-width="1920"
     inkscape:window-height="1017"
     inkscape:window-x="1912"
     inkscape:window-y="-8"
     inkscape:window-maximized="1"
     inkscape:current-layer="svg1"
     showgrid="false"
     inkscape:export-bgcolor="#ffffff00" /><defs
     id="defs1"><linearGradient
       id="linearGradient31"
       inkscape:swatch="gradient"><stop
         style="stop-color:#000000;stop-opacity:0.79906497;"
         offset="0"
         id="stop31" /><stop
         style="stop-color:#000000;stop-opacity:0;"
         offset="1"
         id="stop32" /></linearGradient><linearGradient
       id="swatch13"
       inkscape:swatch="solid"><stop
         style="stop-color:#000000;stop-opacity:0.19710143;"
         offset="0"
         id="stop13" /></linearGradient><linearGradient
       id="swatch11"
       inkscape:swatch="solid"><stop
         style="stop-color:#000000;stop-opacity:1;"
         offset="0"
         id="stop11" /></linearGradient><linearGradient
       id="swatch5"
       inkscape:swatch="solid"><stop
         style="stop-color:#000000;stop-opacity:1;"
         offset="0"
         id="stop5" /></linearGradient><linearGradient
       id="swatch4"
       inkscape:swatch="solid"><stop
         style="stop-color:#ffffff;stop-opacity:1;"
         offset="0"
         id="stop4" /></linearGradient></defs><g
     inkscape:groupmode="layer"
     id="layer4"
     inkscape:label="icons_status"
     transform="translate(1083.4548,823.42685)"
     style="display:inline"><g
       id="g72-7"
       transform="translate(24.764676,-0.53152435)"
       style="stroke:#000000;stroke-width:0.381;stroke-dasharray:none;stroke-opacity:1"
       inkscape:label="suppressed"><path
         id="path54-3-9"
         style="fill:#2f2f2f;fill-opacity:1;stroke:#000000;stroke-width:0.381;stroke-dasharray:none;stroke-opacity:1"
         d="m -1101.794,-821.99427 -3.7363,0.98527 -2.1983,2.87203 -0.2978,3.12956 0.6693,2.33012 -0.3848,0.77766 1.1346,1.36289 1.3611,0.3179 0.4828,1.89159 1.6125,0.94767 1.3569,0.38531 1.357,-0.38531 1.6125,-0.94767 0.4828,-1.89159 1.3611,-0.3179 1.1346,-1.36289 -0.3848,-0.77766 0.6693,-2.33012 -0.2978,-3.12956 -2.1984,-2.87203 z m -3.4173,6.84446 2.0564,1.20431 0.1596,0.65022 -0.268,0.57136 -1.8073,0.50309 -0.7218,-0.43557 -0.2954,-1.6401 0.2405,-0.40445 z m 6.8347,0 0.636,0.44886 0.2405,0.40445 -0.2953,1.6401 -0.7219,0.43557 -1.8073,-0.50309 -0.2679,-0.57136 0.1595,-0.65022 z m -3.8056,2.51936 h 0.3883 0.3884 l 0.7782,1.58458 -0.39,0.72784 -0.7766,-0.43512 -0.7765,0.43512 -0.39,-0.72784 z" /><path
         id="path75"
         style="fill:#c65b16;fill-opacity:1;stroke:#000000;stroke-width:0.127;stroke-linejoin:round;stroke-dasharray:none;stroke-opacity:1"
         d="m -1104.0071,-822.83183 v 4.91582 h -3.1367 l 0.8973,0.72591 h 8.9045 l 0.898,-0.72591 h -3.1374 v -4.91582 z m 6.3103,5.92911 h -8.1943 l 0.7597,0.61436 h 6.675 z m -1.1151,0.90174 h -5.9647 l 0.7604,0.61486 h 4.4439 z m -1.1151,0.90173 h -3.7345 l 1.867,1.51043 z" /></g></g></svg>
