<?xml version="1.0" encoding="UTF-8" standalone="no"?>
<!-- Created with Inkscape (http://www.inkscape.org/) -->

<svg
   width="25.440319mm"
   height="10.711802mm"
   viewBox="0 0 25.440319 10.711802"
   version="1.1"
   id="svg1"
   inkscape:version="1.4.2 (f4327f4, 2025-05-13)"
   sodipodi:docname="рисунок.svg"
   inkscape:export-filename="рисунок.png"
   inkscape:export-xdpi="97.124756"
   inkscape:export-ydpi="97.124756"
   xml:space="preserve"
   inkscape:export-batch-path="C:\Users\Administrator\IdeaProjects\RBZH\assets"
   inkscape:export-batch-name=""
   xmlns:inkscape="http://www.inkscape.org/namespaces/inkscape"
   xmlns:sodipodi="http://sodipodi.sourceforge.net/DTD/sodipodi-0.dtd"
   xmlns="http://www.w3.org/2000/svg"
   xmlns:svg="http://www.w3.org/2000/svg"><sodipodi:namedview
     id="namedview1"
     pagecolor="#ffffff"
     bordercolor="#000000"
     borderopacity="0.25"
     inkscape:showpageshadow="2"
     inkscape:pageopacity="0.0"
     inkscape:pagecheckerboard="0"
     inkscape:deskcolor="#d1d1d1"
     inkscape:document-units="mm"
     inkscape:zoom="1.4142135"
     inkscape:cx="-4129.5038"
     inkscape:cy="541.29026"
     inkscape:window-width="1920"
     inkscape:window-height="1017"
     inkscape:window-x="1912"
     inkscape:window-y="-8"
     inkscape:window-maximized="1"
     inkscape:current-layer="layer4"
     showgrid="false"
     inkscape:export-bgcolor="#ffffff00" /><defs
     id="defs1"><linearGradient
       id="swatch13"
       inkscape:swatch="solid"><stop
         style="stop-color:#000000;stop-opacity:0.19710143;"
         offset="0"
         id="stop13" /></linearGradient><linearGradient
       id="swatch11"
       inkscape:swatch="solid"><stop
         style="stop-color:#000000;stop-opacity:1;"
         offset="0"
         id="stop11" /></linearGradient><linearGradient
       id="swatch5"
       inkscape:swatch="solid"><stop
         style="stop-color:#000000;stop-opacity:1;"
         offset="0"
         id="stop5" /></linearGradient><linearGradient
       id="swatch4"
       inkscape:swatch="solid"><stop
         style="stop-color:#ffffff;stop-opacity:1;"
         offset="0"
         id="stop4" /></linearGradient></defs><g
     inkscape:groupmode="layer"
     id="layer2"
     inkscape:label="palette 1"
     transform="translate(783.30327,769.1727)"><path
       id="ellipse24-9-1-2-1"
       style="stroke:#000000;stroke-width:0.0700001;stroke-linecap:round;stroke-linejoin:bevel"
       d="m -761.8348,-760.29316 c 0,0.9926 -0.79621,1.79726 -1.77839,1.79726 -0.98218,0 -1.77839,-0.80466 -1.77839,-1.79726 0,-0.9926 0.79621,-1.79727 1.77839,-1.79727 0.98218,0 1.77839,0.80467 1.77839,1.79727 z m -15.79406,0 c 0,0.9926 -0.79621,1.79726 -1.77839,1.79726 -0.98218,0 -1.77839,-0.80466 -1.77839,-1.79726 0,-0.9926 0.79621,-1.79727 1.77839,-1.79727 0.98218,0 1.77839,0.80467 1.77839,1.79727 z m -4.37011,-4.05538 6.4018,-0.59909 2.0158,-2.71894 h 4.8955 l 0.0665,2.62677 0.99683,1.01384 h 1.95047 l 0.10047,-1.132 h 5.264 l 0.10036,1.132 h 2.30929 v 2.46547 h -3.93193 l -0.57595,-1.11752 h -2.19301 l -0.68669,1.11752 h -3.68826 l -0.098,1.12905 h -7.63295 l -0.92219,-2.36617 h -2.95314 l -0.998,1.96995 h -1.26404 l -0.42216,-0.36431 -0.004,-1.24281 0.90374,-0.36611 z m 18.9675,-3.17354 -0.46694,-0.29614 0.005,-0.11704 -0.15487,-0.20348 -0.91154,-0.5036 -0.21239,0.10673 -0.1593,-0.0661 -0.11505,0.0661 -1.30536,-0.60534 -0.0929,0.25942 1.26995,0.72235 0.0133,0.23401 -0.0266,0.0661 0.15044,0.0813 -0.40266,1.00213 0.0399,0.24927 0.57082,0.3103 0.17257,-0.12202 0.40711,-1.01231 0.31859,0.16785 0.0399,-0.0712 0.51329,0.36115 -0.0929,0.16785 -0.41595,-0.005 -0.11504,0.21365 -0.66991,1.04268 -0.31417,0.005 -0.0443,0.36626 h 0.56197 l -0.0399,-0.1373 0.48405,-0.80358 1.44422,-0.26207 1.08411,0.89022 0.21681,0.31273 h 0.47791 l 0.11061,-0.16013 -0.11947,-0.18313 h -0.16815 l -1.37172,-1.10896 -0.57525,-0.42731 z"
       inkscape:label="technical_ramp_agl"
       sodipodi:insensitive="true" /></g></svg>
