<?xml version="1.0" encoding="UTF-8" standalone="no"?>
<!-- Created with Inkscape (http://www.inkscape.org/) -->

<svg
   width="25.440319mm"
   height="10.98348mm"
   viewBox="0 0 25.440319 10.98348"
   version="1.1"
   id="svg1"
   inkscape:version="1.4.2 (f4327f4, 2025-05-13)"
   sodipodi:docname="рисунок.svg"
   inkscape:export-filename="рисунок.png"
   inkscape:export-xdpi="97.124756"
   inkscape:export-ydpi="97.124756"
   xml:space="preserve"
   inkscape:export-batch-path="C:\Users\Administrator\IdeaProjects\RBZH\assets"
   inkscape:export-batch-name=""
   xmlns:inkscape="http://www.inkscape.org/namespaces/inkscape"
   xmlns:sodipodi="http://sodipodi.sourceforge.net/DTD/sodipodi-0.dtd"
   xmlns="http://www.w3.org/2000/svg"
   xmlns:svg="http://www.w3.org/2000/svg"><sodipodi:namedview
     id="namedview1"
     pagecolor="#ffffff"
     bordercolor="#000000"
     borderopacity="0.25"
     inkscape:showpageshadow="2"
     inkscape:pageopacity="0.0"
     inkscape:pagecheckerboard="0"
     inkscape:deskcolor="#d1d1d1"
     inkscape:document-units="mm"
     inkscape:zoom="1.4142135"
     inkscape:cx="-4129.5038"
     inkscape:cy="541.29026"
     inkscape:window-width="1920"
     inkscape:window-height="1017"
     inkscape:window-x="1912"
     inkscape:window-y="-8"
     inkscape:window-maximized="1"
     inkscape:current-layer="layer4"
     showgrid="false"
     inkscape:export-bgcolor="#ffffff00" /><defs
     id="defs1"><linearGradient
       id="swatch13"
       inkscape:swatch="solid"><stop
         style="stop-color:#000000;stop-opacity:0.19710143;"
         offset="0"
         id="stop13" /></linearGradient><linearGradient
       id="swatch11"
       inkscape:swatch="solid"><stop
         style="stop-color:#000000;stop-opacity:1;"
         offset="0"
         id="stop11" /></linearGradient><linearGradient
       id="swatch5"
       inkscape:swatch="solid"><stop
         style="stop-color:#000000;stop-opacity:1;"
         offset="0"
         id="stop5" /></linearGradient><linearGradient
       id="swatch4"
       inkscape:swatch="solid"><stop
         style="stop-color:#ffffff;stop-opacity:1;"
         offset="0"
         id="stop4" /></linearGradient></defs><g
     inkscape:groupmode="layer"
     id="layer2"
     inkscape:label="palette 1"
     transform="translate(783.30327,782.48762)"><path
       id="ellipse24-9-1"
       style="stroke:#000000;stroke-width:0.0700001;stroke-linecap:round;stroke-linejoin:bevel"
       d="m -761.83481,-773.3364 c 0,0.9926 -0.79621,1.79726 -1.77839,1.79726 -0.98217,0 -1.77838,-0.80466 -1.77838,-1.79726 0,-0.9926 0.79621,-1.79727 1.77838,-1.79727 0.98218,0 1.77839,0.80467 1.77839,1.79727 z m -15.79406,0 c 0,0.9926 -0.7962,1.79726 -1.77838,1.79726 -0.98218,0 -1.77839,-0.80466 -1.77839,-1.79726 0,-0.9926 0.79621,-1.79727 1.77839,-1.79727 0.98218,0 1.77838,0.80467 1.77838,1.79727 z m -4.3701,-4.05538 6.4018,-0.59909 2.0158,-2.71894 h 4.8955 l 0.0665,2.62677 0.99683,1.01384 h 1.95047 l 0.10047,-1.132 h 5.264 l 0.10036,1.132 h 2.30929 v 2.46547 h -3.93193 l -0.57595,-1.11752 h -2.19301 l -0.68669,1.11752 h -3.68826 l -0.098,1.12905 h -7.63295 l -0.92219,-2.36617 h -2.95314 l -0.998,1.96995 h -1.26404 l -0.42216,-0.36431 -0.004,-1.24281 0.90374,-0.36611 z m 18.35718,-4.50835 h 0.49375 l 0.13154,-0.23834 h 0.88487 l 0.0927,0.16796 h 0.40356 l 0.24779,-0.25923 v -0.22288 h 0.12292 v 0.26001 l -0.18534,0.33586 v 0.75839 h 0.65169 l 0.0946,-0.63973 h 0.61091 v 0.89973 h -0.71749 l -0.0128,-0.0863 h -0.38185 l -0.0614,0.19287 0.0774,0.52351 -0.13553,0.0416 -0.10763,-0.54171 -0.0239,-0.17334 h -0.81315 l -0.46635,0.97507 -0.0717,-0.0975 0.37068,-0.88839 h -0.89085 l -0.3144,-0.15265 z m -2.11905,0.44421 h 2.09861 v 0.2925 l -2.09861,-0.0974 z m -1.20772,-0.29294 h 3.31231 v 0.22291 h -3.31231 z m 0.62995,0.25077 h 0.13951 v -0.7278 h -0.15644 z m -1.39517,-0.39071 v 0.49029 l 0.81173,-0.0406 v -0.39989 l -0.32605,-0.0405 v 0.38738 h -0.0658 v -0.38738 h -0.0658 v 0.38738 h -0.0658 v -0.38738 h -0.0658 v 0.38738 h -0.0658 v -0.38738 z m 3.39067,1.17975 -0.62572,2.5738 h 0.22829 l 0.55994,-2.26736 h 0.45472 l 1.16685,1.17977 0.80794,1.08759 h 0.33357 l -0.95548,-1.21017 -1.34882,-1.4111 z"
       inkscape:label="technical_ramp_hmg"
       sodipodi:insensitive="true" /></g></svg>
