<?xml version="1.0" encoding="UTF-8" standalone="no"?>
<!-- Created with Inkscape (http://www.inkscape.org/) -->

<svg
   width="25.440319mm"
   height="9.2406702mm"
   viewBox="0 0 25.440319 9.2406702"
   version="1.1"
   id="svg1"
   inkscape:version="1.4.2 (f4327f4, 2025-05-13)"
   sodipodi:docname="рисунок.svg"
   inkscape:export-filename="рисунок.png"
   inkscape:export-xdpi="97.124756"
   inkscape:export-ydpi="97.124756"
   xml:space="preserve"
   inkscape:export-batch-path="C:\Users\Administrator\IdeaProjects\RBZH\assets"
   inkscape:export-batch-name=""
   xmlns:inkscape="http://www.inkscape.org/namespaces/inkscape"
   xmlns:sodipodi="http://sodipodi.sourceforge.net/DTD/sodipodi-0.dtd"
   xmlns="http://www.w3.org/2000/svg"
   xmlns:svg="http://www.w3.org/2000/svg"><sodipodi:namedview
     id="namedview1"
     pagecolor="#ffffff"
     bordercolor="#000000"
     borderopacity="0.25"
     inkscape:showpageshadow="2"
     inkscape:pageopacity="0.0"
     inkscape:pagecheckerboard="0"
     inkscape:deskcolor="#d1d1d1"
     inkscape:document-units="mm"
     inkscape:zoom="1.4142135"
     inkscape:cx="-4129.5038"
     inkscape:cy="541.29026"
     inkscape:window-width="1920"
     inkscape:window-height="1017"
     inkscape:window-x="1912"
     inkscape:window-y="-8"
     inkscape:window-maximized="1"
     inkscape:current-layer="layer4"
     showgrid="false"
     inkscape:export-bgcolor="#ffffff00" /><defs
     id="defs1"><linearGradient
       id="swatch13"
       inkscape:swatch="solid"><stop
         style="stop-color:#000000;stop-opacity:0.19710143;"
         offset="0"
         id="stop13" /></linearGradient><linearGradient
       id="swatch11"
       inkscape:swatch="solid"><stop
         style="stop-color:#000000;stop-opacity:1;"
         offset="0"
         id="stop11" /></linearGradient><linearGradient
       id="swatch5"
       inkscape:swatch="solid"><stop
         style="stop-color:#000000;stop-opacity:1;"
         offset="0"
         id="stop5" /></linearGradient><linearGradient
       id="swatch4"
       inkscape:swatch="solid"><stop
         style="stop-color:#ffffff;stop-opacity:1;"
         offset="0"
         id="stop4" /></linearGradient></defs><g
     inkscape:groupmode="layer"
     id="layer2"
     inkscape:label="palette 1"
     transform="translate(852.47402,783.33315)"><path
       id="ellipse24-9"
       style="stroke:#000000;stroke-width:0.0700001;stroke-linecap:round;stroke-linejoin:bevel"
       d="m -831.00555,-775.92474 a 1.7783898,1.7972615 0 0 1 -1.77839,1.79726 1.7783898,1.7972615 0 0 1 -1.77839,-1.79726 1.7783898,1.7972615 0 0 1 1.77839,-1.79727 1.7783898,1.7972615 0 0 1 1.77839,1.79727 z m -15.79406,0 a 1.7783898,1.7972615 0 0 1 -1.77839,1.79726 1.7783898,1.7972615 0 0 1 -1.77839,-1.79726 1.7783898,1.7972615 0 0 1 1.77839,-1.79727 1.7783898,1.7972615 0 0 1 1.77839,1.79727 z m -4.37011,-4.05538 6.4018,-0.59909 2.0158,-2.71894 h 4.8955 l 0.0665,2.62677 0.99683,1.01384 h 9.72459 v 2.46547 h -3.93193 l -0.57595,-1.11752 h -2.19301 l -0.68669,1.11752 h -3.68826 l -0.098,1.12905 h -7.63295 l -0.92219,-2.36617 h -2.95314 l -0.998,1.96995 h -1.26404 l -0.42216,-0.36431 -0.004,-1.24281 0.90374,-0.36611 z"
       inkscape:label="technical"
       sodipodi:insensitive="true" /></g></svg>
