<?xml version="1.0" encoding="UTF-8" standalone="no"?>
<!-- Created with Inkscape (http://www.inkscape.org/) -->

<svg
   width="25.440319mm"
   height="10.708277mm"
   viewBox="0 0 25.440319 10.708277"
   version="1.1"
   id="svg1"
   inkscape:version="1.4.2 (f4327f4, 2025-05-13)"
   sodipodi:docname="рисунок.svg"
   inkscape:export-filename="рисунок.png"
   inkscape:export-xdpi="97.124756"
   inkscape:export-ydpi="97.124756"
   xml:space="preserve"
   inkscape:export-batch-path="C:\Users\Administrator\IdeaProjects\RBZH\assets"
   inkscape:export-batch-name=""
   xmlns:inkscape="http://www.inkscape.org/namespaces/inkscape"
   xmlns:sodipodi="http://sodipodi.sourceforge.net/DTD/sodipodi-0.dtd"
   xmlns="http://www.w3.org/2000/svg"
   xmlns:svg="http://www.w3.org/2000/svg"><sodipodi:namedview
     id="namedview1"
     pagecolor="#ffffff"
     bordercolor="#000000"
     borderopacity="0.25"
     inkscape:showpageshadow="2"
     inkscape:pageopacity="0.0"
     inkscape:pagecheckerboard="0"
     inkscape:deskcolor="#d1d1d1"
     inkscape:document-units="mm"
     inkscape:zoom="1.4142135"
     inkscape:cx="-4129.5038"
     inkscape:cy="541.29026"
     inkscape:window-width="1920"
     inkscape:window-height="1017"
     inkscape:window-x="1912"
     inkscape:window-y="-8"
     inkscape:window-maximized="1"
     inkscape:current-layer="layer4"
     showgrid="false"
     inkscape:export-bgcolor="#ffffff00" /><defs
     id="defs1"><linearGradient
       id="swatch13"
       inkscape:swatch="solid"><stop
         style="stop-color:#000000;stop-opacity:0.19710143;"
         offset="0"
         id="stop13" /></linearGradient><linearGradient
       id="swatch11"
       inkscape:swatch="solid"><stop
         style="stop-color:#000000;stop-opacity:1;"
         offset="0"
         id="stop11" /></linearGradient><linearGradient
       id="swatch5"
       inkscape:swatch="solid"><stop
         style="stop-color:#000000;stop-opacity:1;"
         offset="0"
         id="stop5" /></linearGradient><linearGradient
       id="swatch4"
       inkscape:swatch="solid"><stop
         style="stop-color:#ffffff;stop-opacity:1;"
         offset="0"
         id="stop4" /></linearGradient></defs><g
     inkscape:groupmode="layer"
     id="layer2"
     inkscape:label="palette 1"
     transform="translate(783.30327,755.92569)"><path
       id="ellipse24-9-1-2-1-2"
       style="stroke:#000000;stroke-width:0.0700001;stroke-linecap:round;stroke-linejoin:bevel"
       d="m -761.83481,-747.04967 c 0,0.9926 -0.79621,1.79726 -1.77839,1.79726 -0.98217,0 -1.77838,-0.80466 -1.77838,-1.79726 0,-0.9926 0.79621,-1.79727 1.77838,-1.79727 0.98218,0 1.77839,0.80467 1.77839,1.79727 z m -15.79406,0 c 0,0.9926 -0.7962,1.79726 -1.77838,1.79726 -0.98218,0 -1.77839,-0.80466 -1.77839,-1.79726 0,-0.9926 0.79621,-1.79727 1.77839,-1.79727 0.98218,0 1.77838,0.80467 1.77838,1.79727 z m -4.3701,-4.05538 6.4018,-0.59909 2.0158,-2.71894 h 4.8955 l 0.0665,2.62677 0.99683,1.01384 h 1.95047 l 0.10047,-1.132 h 5.264 l 0.10036,1.132 h 2.30929 v 2.46547 h -3.93193 l -0.57595,-1.11752 h -2.19301 l -0.68669,1.11752 h -3.68826 l -0.098,1.12905 h -7.63295 l -0.92219,-2.36617 h -2.95314 l -0.998,1.96995 h -1.26404 l -0.42216,-0.36431 -0.004,-1.24281 0.90374,-0.36611 z m 20.33731,-1.78668 h 0.20204 v -0.0842 h 0.0987 v 0.0841 h 0.405 v -0.0841 h 0.0987 v 0.0839 h 0.20604 v 1.0102 h -1.0102 z m -1.23509,-1.10443 h -1.12157 l -0.84673,2.1111 h 0.5125 l 0.57934,-1.29504 0.63135,0.0177 0.64112,1.27728 h 0.53243 z m 1.01968,-1.77144 -0.87136,0.0999 v 0.9119 l 0.87136,0.10017 z m -0.97966,-0.0115 c 0,0 -0.0975,-0.083 -0.15714,-0.10048 -0.0503,-0.0147 -0.10686,-0.0147 -0.15714,0 -0.0597,0.0175 -0.15714,0.10048 -0.15714,0.10048 0,0 -0.0975,-0.083 -0.15713,-0.10048 -0.0503,-0.0147 -0.10687,-0.0147 -0.15714,0 -0.0597,0.0175 -0.15713,0.10048 -0.15713,0.10048 0,0 -0.0975,-0.083 -0.15714,-0.10048 -0.0503,-0.0147 -0.10686,-0.0147 -0.15713,0 -0.0597,0.0175 -0.15714,0.10048 -0.15714,0.10048 v 1.13481 c 0,0 0.0976,0.0824 0.15714,0.0997 0.0503,0.0146 0.10683,0.0146 0.15713,0 0.0596,-0.0173 0.15714,-0.0997 0.15714,-0.0997 0,0 0.0976,0.0824 0.15713,0.0997 0.0503,0.0146 0.10684,0.0146 0.15714,0 0.0596,-0.0173 0.15713,-0.0997 0.15713,-0.0997 0,0 0.0976,0.0824 0.15714,0.0997 0.0503,0.0146 0.10683,0.0146 0.15714,0 0.0596,-0.0173 0.15714,-0.0997 0.15714,-0.0997 z m -1.52302,0.27863 -3.41432,0.0999 -2.3e-4,0.378 3.41455,0.0996 z"
       inkscape:label="technical_ramp_plasma_rcl"
       sodipodi:insensitive="true" /></g></svg>
