<?xml version="1.0" encoding="UTF-8" standalone="no"?>
<!-- Created with Inkscape (http://www.inkscape.org/) -->

<svg
   width="34.414539mm"
   height="19.88896mm"
   viewBox="0 0 34.414539 19.88896"
   version="1.1"
   id="svg1"
   inkscape:version="1.4.2 (f4327f4, 2025-05-13)"
   sodipodi:docname="рисунок.svg"
   inkscape:export-filename="рисунок.png"
   inkscape:export-xdpi="97.124756"
   inkscape:export-ydpi="97.124756"
   xml:space="preserve"
   inkscape:export-batch-path="C:\Users\Administrator\IdeaProjects\RBZH\assets"
   inkscape:export-batch-name=""
   xmlns:inkscape="http://www.inkscape.org/namespaces/inkscape"
   xmlns:sodipodi="http://sodipodi.sourceforge.net/DTD/sodipodi-0.dtd"
   xmlns="http://www.w3.org/2000/svg"
   xmlns:svg="http://www.w3.org/2000/svg"><sodipodi:namedview
     id="namedview1"
     pagecolor="#ffffff"
     bordercolor="#000000"
     borderopacity="0.25"
     inkscape:showpageshadow="2"
     inkscape:pageopacity="0.0"
     inkscape:pagecheckerboard="0"
     inkscape:deskcolor="#d1d1d1"
     inkscape:document-units="mm"
     inkscape:zoom="1.4142135"
     inkscape:cx="-4129.5038"
     inkscape:cy="541.29026"
     inkscape:window-width="1920"
     inkscape:window-height="1017"
     inkscape:window-x="1912"
     inkscape:window-y="-8"
     inkscape:window-maximized="1"
     inkscape:current-layer="layer4"
     showgrid="false"
     inkscape:export-bgcolor="#ffffff00" /><defs
     id="defs1"><linearGradient
       id="swatch13"
       inkscape:swatch="solid"><stop
         style="stop-color:#000000;stop-opacity:0.19710143;"
         offset="0"
         id="stop13" /></linearGradient><linearGradient
       id="swatch11"
       inkscape:swatch="solid"><stop
         style="stop-color:#000000;stop-opacity:1;"
         offset="0"
         id="stop11" /></linearGradient><linearGradient
       id="swatch5"
       inkscape:swatch="solid"><stop
         style="stop-color:#000000;stop-opacity:1;"
         offset="0"
         id="stop5" /></linearGradient><linearGradient
       id="swatch4"
       inkscape:swatch="solid"><stop
         style="stop-color:#ffffff;stop-opacity:1;"
         offset="0"
         id="stop4" /></linearGradient></defs><g
     inkscape:groupmode="layer"
     id="layer2"
     inkscape:label="palette 1"
     transform="translate(867.32175,767.70251)"><path
       id="rect10-8"
       style="fill:#000000;fill-opacity:1;stroke:#ffffff;stroke-width:0.0700002;stroke-linecap:round;stroke-linejoin:bevel;stroke-opacity:1"
       d="m -867.28675,-762.95107 7.28359,-2.1e-4 v -0.27393 h 3.26599 v 0.27393 l 4.8298,2.1e-4 v 2.39168 h -4.8298 l 2e-5,0.27391 h -3.26599 l -2e-5,-0.27391 h -7.28359 z m 16.2434,4.0586 13.32304,-1.01465 c 0,0 0.38133,-0.50674 0.48386,-0.90594 0.0937,-0.36549 0.0864,-1.23209 0.0864,-1.23209 h 0.5573 l 0.92017,-3.51505 v -1.45856 h -2.28532 v 0.48921 h -1.74962 l -0.93988,-1.13796 h -3.50976 l -0.97484,1.13796 c 0,0 -0.66437,-0.10057 -0.99512,-0.0453 -0.76753,0.12808 -1.52123,0.51443 -2.27234,0.86973 -0.56154,0.26563 -1.12884,0.51648 -1.66753,0.94217 -0.39654,0.31335 -0.80636,0.6312 -1.14052,1.17772 -0.0982,0.16075 -0.1844,0.36601 -0.2419,0.59794 -0.0948,0.38212 -0.1294,0.82301 -0.15553,1.25019 -0.0296,0.48523 -0.0641,0.99723 0,1.46762 0.0419,0.30777 0.14185,0.57364 0.24191,0.81535 0.0911,0.22013 0.31969,0.56169 0.31969,0.56169 z m -0.70855,8.03653 2.67774,-2.35291 v 2.36181 l 0.40825,0.29254 v 1.4261 l -0.35779,0.43877 v 0.80449 h 2.80289 v -1.13354 l -0.69205,-0.22741 v -1.30841 h 1.52696 l 0.92084,-1.95595 v -1.33501 h 1.79259 l 1.05088,0.74403 v 0.91975 l 2.53552,1.79518 h 1.0354 l 0.44226,-0.93943 v -1.13004 l 0.1984,-0.24325 v -0.84578 h 0.48053 l 1.11515,1.89351 v 2.10257 l -0.41596,0.88355 h -1.0153 v 0.81682 h 4.29378 v -0.82279 h -0.35782 v -2.08426 l 0.36742,-0.1207 v -3.33482 l -0.63846,-0.78289 h -1.3242 v -1.37451 l -1.63253,-2.00203 h -2.00525 v 0.74048 l 0.32042,0.22691 v 0.77868 l -0.95775,0.31471 v 1.34904 l -0.50396,0.35681 -0.4664,-0.99073 h -0.76287 l -0.21274,-0.9737 0.62128,-0.76187 v -0.62896 l -0.74782,-0.24573 h -8.0843 l -0.41329,0.50682 v 1.05532 l 0.81027,0.57368 -1.07976,0.35285 -1.52193,1.44727 -1.77108,-2.12022 h -0.75905 l 0.42169,-1.34453 h -2.15063 l -1.53538,1.08707 v 0.77458 l -2.63934,1.6031 v -1.08597 l -1.09641,0.25857 -1.43374,2.74077 0.16868,1.18941 -0.59038,0.51712 v 1.13769 l -1.09639,1.55139 h 5.06029 v -0.60762 h -1.17018 l -0.49549,-0.43956 0.54819,-0.67225 0.12648,-1.4092 1.10695,-1.3833 v 0.95669 h 0.43222 l 3.37766,-2.39146 v -0.82769 h 0.38594 l 2.06629,3.8526 z"
       inkscape:label="коробочка" /></g></svg>
